G04 #@! TF.GenerationSoftware,KiCad,Pcbnew,(6.0.10)*
G04 #@! TF.CreationDate,2023-01-16T22:35:13+01:00*
G04 #@! TF.ProjectId,IdealDiode,49646561-6c44-4696-9f64-652e6b696361,rev?*
G04 #@! TF.SameCoordinates,Original*
G04 #@! TF.FileFunction,Legend,Top*
G04 #@! TF.FilePolarity,Positive*
%FSLAX46Y46*%
G04 Gerber Fmt 4.6, Leading zero omitted, Abs format (unit mm)*
G04 Created by KiCad (PCBNEW (6.0.10)) date 2023-01-16 22:35:13*
%MOMM*%
%LPD*%
G01*
G04 APERTURE LIST*
G04 Aperture macros list*
%AMRoundRect*
0 Rectangle with rounded corners*
0 $1 Rounding radius*
0 $2 $3 $4 $5 $6 $7 $8 $9 X,Y pos of 4 corners*
0 Add a 4 corners polygon primitive as box body*
4,1,4,$2,$3,$4,$5,$6,$7,$8,$9,$2,$3,0*
0 Add four circle primitives for the rounded corners*
1,1,$1+$1,$2,$3*
1,1,$1+$1,$4,$5*
1,1,$1+$1,$6,$7*
1,1,$1+$1,$8,$9*
0 Add four rect primitives between the rounded corners*
20,1,$1+$1,$2,$3,$4,$5,0*
20,1,$1+$1,$4,$5,$6,$7,0*
20,1,$1+$1,$6,$7,$8,$9,0*
20,1,$1+$1,$8,$9,$2,$3,0*%
G04 Aperture macros list end*
%ADD10C,0.150000*%
%ADD11C,0.127000*%
%ADD12C,0.200000*%
%ADD13C,0.120000*%
%ADD14R,2.550000X2.550000*%
%ADD15C,2.550000*%
%ADD16R,7.500000X2.500000*%
%ADD17RoundRect,0.150000X0.150000X-0.512500X0.150000X0.512500X-0.150000X0.512500X-0.150000X-0.512500X0*%
%ADD18C,1.803400*%
G04 APERTURE END LIST*
D10*
X122615180Y-83503183D02*
X123329466Y-83503183D01*
X123472323Y-83550802D01*
X123567561Y-83646040D01*
X123615180Y-83788897D01*
X123615180Y-83884135D01*
X123615180Y-82503183D02*
X123615180Y-83074611D01*
X123615180Y-82788897D02*
X122615180Y-82788897D01*
X122758038Y-82884135D01*
X122853276Y-82979373D01*
X122900895Y-83074611D01*
X147677142Y-95416666D02*
X147724761Y-95464285D01*
X147772380Y-95607142D01*
X147772380Y-95702380D01*
X147724761Y-95845238D01*
X147629523Y-95940476D01*
X147534285Y-95988095D01*
X147343809Y-96035714D01*
X147200952Y-96035714D01*
X147010476Y-95988095D01*
X146915238Y-95940476D01*
X146820000Y-95845238D01*
X146772380Y-95702380D01*
X146772380Y-95607142D01*
X146820000Y-95464285D01*
X146867619Y-95416666D01*
X146772380Y-94511904D02*
X146772380Y-94988095D01*
X147248571Y-95035714D01*
X147200952Y-94988095D01*
X147153333Y-94892857D01*
X147153333Y-94654761D01*
X147200952Y-94559523D01*
X147248571Y-94511904D01*
X147343809Y-94464285D01*
X147581904Y-94464285D01*
X147677142Y-94511904D01*
X147724761Y-94559523D01*
X147772380Y-94654761D01*
X147772380Y-94892857D01*
X147724761Y-94988095D01*
X147677142Y-95035714D01*
X134212380Y-85851904D02*
X135021904Y-85851904D01*
X135117142Y-85804285D01*
X135164761Y-85756666D01*
X135212380Y-85661428D01*
X135212380Y-85470952D01*
X135164761Y-85375714D01*
X135117142Y-85328095D01*
X135021904Y-85280476D01*
X134212380Y-85280476D01*
X135212380Y-84280476D02*
X135212380Y-84851904D01*
X135212380Y-84566190D02*
X134212380Y-84566190D01*
X134355238Y-84661428D01*
X134450476Y-84756666D01*
X134498095Y-84851904D01*
X132008571Y-72821683D02*
X132008571Y-73155016D01*
X132532380Y-73155016D02*
X131532380Y-73155016D01*
X131532380Y-72678826D01*
X132532380Y-71774064D02*
X132532380Y-72345492D01*
X132532380Y-72059778D02*
X131532380Y-72059778D01*
X131675238Y-72155016D01*
X131770476Y-72250254D01*
X131818095Y-72345492D01*
X127265180Y-72488350D02*
X127503276Y-72488350D01*
X127408038Y-72726445D02*
X127503276Y-72488350D01*
X127408038Y-72250254D01*
X127693752Y-72631207D02*
X127503276Y-72488350D01*
X127693752Y-72345492D01*
X146342380Y-77518333D02*
X147056666Y-77518333D01*
X147199523Y-77565952D01*
X147294761Y-77661190D01*
X147342380Y-77804047D01*
X147342380Y-77899285D01*
X146437619Y-77089761D02*
X146390000Y-77042142D01*
X146342380Y-76946904D01*
X146342380Y-76708809D01*
X146390000Y-76613571D01*
X146437619Y-76565952D01*
X146532857Y-76518333D01*
X146628095Y-76518333D01*
X146770952Y-76565952D01*
X147342380Y-77137380D01*
X147342380Y-76518333D01*
D11*
X100927800Y-80244850D02*
X121677800Y-80244850D01*
X121677800Y-80244850D02*
X121677800Y-93744850D01*
X121677800Y-93744850D02*
X100927800Y-93744850D01*
X100927800Y-93744850D02*
X100927800Y-80244850D01*
D12*
X119127800Y-79569850D02*
G75*
G03*
X119127800Y-79569850I-100000J0D01*
G01*
D11*
X153250000Y-81940000D02*
X149250000Y-85940000D01*
X149250000Y-93010000D02*
X149250000Y-96940000D01*
X153250000Y-100940000D02*
X168250000Y-100940000D01*
X168250000Y-89870000D02*
X168250000Y-81940000D01*
X149250000Y-85940000D02*
X149250000Y-89870000D01*
X168250000Y-81940000D02*
X153250000Y-81940000D01*
X149250000Y-96940000D02*
X153250000Y-100940000D01*
X168250000Y-100940000D02*
X168250000Y-93010000D01*
D12*
X148700000Y-89290000D02*
G75*
G03*
X148700000Y-89290000I-100000J0D01*
G01*
D13*
X135600000Y-85090000D02*
X135600000Y-86890000D01*
X135600000Y-85090000D02*
X135600000Y-84290000D01*
X138720000Y-85090000D02*
X138720000Y-85890000D01*
X138720000Y-85090000D02*
X138720000Y-84290000D01*
X100939600Y-77860450D02*
X130200400Y-77860450D01*
X130200400Y-67116250D02*
X100939600Y-67116250D01*
X130200400Y-77860450D02*
X130200400Y-67116250D01*
X100939600Y-67116250D02*
X100939600Y-77860450D01*
D11*
X169125000Y-66610000D02*
X169125000Y-80110000D01*
X148375000Y-80110000D02*
X148375000Y-66610000D01*
X148375000Y-66610000D02*
X169125000Y-66610000D01*
X169125000Y-80110000D02*
X148375000Y-80110000D01*
D12*
X151125000Y-80785000D02*
G75*
G03*
X151125000Y-80785000I-100000J0D01*
G01*
%LPC*%
D14*
X119027800Y-83819850D03*
D15*
X109527800Y-90169850D03*
D16*
X152000000Y-91440000D03*
X165500000Y-91440000D03*
D17*
X136210000Y-86227500D03*
X137160000Y-86227500D03*
X138110000Y-86227500D03*
X138110000Y-83952500D03*
X137160000Y-83952500D03*
X136210000Y-83952500D03*
D18*
X127812800Y-72488350D03*
X115316000Y-72488350D03*
D14*
X151025000Y-76535000D03*
D15*
X160525000Y-70185000D03*
M02*
