M48
; DRILL file {KiCad (6.0.10)} date Mon Jan 16 22:35:18 2023
; FORMAT={-:-/ absolute / metric / decimal}
; #@! TF.CreationDate,2023-01-16T22:35:18+01:00
; #@! TF.GenerationSoftware,Kicad,Pcbnew,(6.0.10)
; #@! TF.FileFunction,Plated,1,2,PTH
FMAT,2
METRIC
; #@! TA.AperFunction,Plated,PTH,ViaDrill
T1C0.400
; #@! TA.AperFunction,Plated,PTH,ComponentDrill
T2C1.295
; #@! TA.AperFunction,Plated,PTH,ComponentDrill
T3C1.700
%
G90
G05
T1
X134.62Y-78.74
X134.62Y-82.55
X134.62Y-86.36
X139.7Y-69.85
X139.7Y-71.12
X139.7Y-72.39
X139.7Y-73.66
X139.7Y-74.93
X139.7Y-76.2
X139.7Y-77.47
X139.7Y-87.63
X140.97Y-69.85
X140.97Y-71.12
X140.97Y-72.39
X140.97Y-73.66
X140.97Y-74.93
X140.97Y-76.2
X140.97Y-77.47
X142.24Y-69.85
X142.24Y-71.12
X142.24Y-72.39
X142.24Y-73.66
X142.24Y-74.93
X142.24Y-76.2
X142.24Y-77.47
X143.51Y-69.85
X143.51Y-71.12
X143.51Y-72.39
X143.51Y-73.66
X143.51Y-74.93
X143.51Y-76.2
X143.51Y-77.47
X144.78Y-69.85
X144.78Y-71.12
X144.78Y-72.39
X144.78Y-73.66
X144.78Y-74.93
X144.78Y-76.2
X144.78Y-77.47
T2
X115.316Y-72.488
X127.813Y-72.488
T3
X109.528Y-90.17
X119.028Y-83.82
X151.025Y-76.535
X160.525Y-70.185
T0
M30
